<?xml version="1.0" encoding="UTF-8" standalone="no"?>
<svg
   width="29"
   height="109.734"
   viewBox="0 -76.617 28.999999 109.734"
   version="1.1"
   id="svg1"
   sodipodi:docname="_bazo_aj.svg"
   xml:space="preserve"
   inkscape:version="1.3.2 (091e20e, 2023-11-25, custom)"
   xmlns:inkscape="http://www.inkscape.org/namespaces/inkscape"
   xmlns:sodipodi="http://sodipodi.sourceforge.net/DTD/sodipodi-0.dtd"
   xmlns="http://www.w3.org/2000/svg"
   xmlns:svg="http://www.w3.org/2000/svg"><defs
     id="defs1" /><sodipodi:namedview
     id="namedview1"
     pagecolor="#ffffff"
     bordercolor="#000000"
     borderopacity="0.25"
     inkscape:showpageshadow="2"
     inkscape:pageopacity="0.0"
     inkscape:pagecheckerboard="0"
     inkscape:deskcolor="#d1d1d1"
     inkscape:zoom="7.0807589"
     inkscape:cx="20.407417"
     inkscape:cy="71.955564"
     inkscape:window-width="1920"
     inkscape:window-height="991"
     inkscape:window-x="-9"
     inkscape:window-y="-9"
     inkscape:window-maximized="1"
     inkscape:current-layer="svg1" /><symbol
     id="seguihis_507"
     width="5.8540001"
     height="27.434"
     viewBox="0 -19.154 5.854 27.434"><path
       d="m 5.854,-6 v 0 q 0,0.65 -0.062,1.356 Q 5.73,-3.938 5.572,-3.255 5.414,-2.572 5.136,-1.957 4.857,-1.342 4.421,-0.876 3.984,-0.41 3.375,-0.135 2.766,0.141 1.939,0.141 1.676,0.141 1.5,0.129 1.324,0.117 1.175,0.091 1.025,0.064 0.87,0.026 0.715,-0.012 0.48,-0.064 v -0.809 q 0.165,0.059 0.375,0.1 0.182,0.035 0.428,0.064 0.246,0.029 0.545,0.029 0.656,0 1.137,-0.237 0.48,-0.237 0.82,-0.639 0.34,-0.401 0.557,-0.931 0.217,-0.531 0.34,-1.122 Q 4.805,-4.201 4.849,-4.816 4.893,-5.432 4.893,-6 Z"
       id="path1" /></symbol><g
     id="g1"><g
       id="use1"
       transform="matrix(4,0,0,4,0,-0.001)"><path
         d="m 6.7825426,-6.0032912 v 0 L 6.1669614,-4.4541698 5.6395506,-3.126931 C 5.4535741,-2.6589178 5.3213333,-2.367 5.136,-1.957 4.95,-1.547 4.7116667,-1.1866667 4.421,-0.876 4.1296667,-0.56533333 3.781,-0.31833333 3.375,-0.135 2.969,0.049 2.4903333,0.141 1.939,0.141 1.7636667,0.141 1.6173333,0.137 1.5,0.129 1.3826667,0.121 1.2743333,0.10833333 1.175,0.091 1.075,0.073 0.97333333,0.05133333 0.87,0.026 0.76666667,6.6666667e-4 0.63666667,-0.02933333 0.48,-0.064 v -0.809 c 0.11,0.0393333 0.235,0.0726667 0.375,0.1 0.12133333,0.0233333 0.264,0.0446667 0.428,0.064 0.164,0.0193333 0.3456667,0.029 0.545,0.029 0.4373333,0 0.8163333,-0.079 1.137,-0.237 0.32,-0.158 0.5933333,-0.371 0.82,-0.639 0.2266667,-0.2673333 0.4351119,-0.5588369 0.6069316,-0.8997928 0.1833165,-0.3637698 0.323402,-0.6508985 0.4894513,-1.074767 l 0.5179976,-1.3222747 0.4571621,-1.1504567 z"
         id="path4"
         style="display:none"
         sodipodi:nodetypes="ccsscccsscscccssccssscc" /><path
         d="m 6.7825426,-6.0032912 v 0 l -3.481,8.7599999 h -0.926 l 3.481,-8.7599999 z"
         id="path5" /><path
         d="m 0.51687827,-0.93599554 v 0 C 1.1203714,-1.1187239 1.5932409,-1.3121222 2.0609747,-1.5514977 2.5287094,-1.7901816 2.9516619,-2.0323776 3.3042783,-2.3125053 3.6568953,-2.5919415 3.9999052,-2.9080288 4.2630006,-3.2272492 4.5260959,-3.5464696 4.7892346,-3.9008945 4.9708752,-4.2012669 5.1671823,-4.525893 5.4548912,-4.9925282 5.581697,-5.3116373 l 0.2748456,-0.6916539 0.9047139,0.00842 c -0.2953005,0.788276 -0.5152513,1.2616527 -0.8046872,1.7924067 -0.2894358,0.5307539 -0.5423731,0.9615991 -0.8890045,1.408878 -0.3466314,0.4472789 -0.5889885,0.7629345 -1.0289073,1.1312259 -0.4399189,0.3682913 -1.0754271,0.7621179 -1.6641557,1.00005311 -0.5887288,0.23793522 -1.856913,0.57670645 -1.856913,0.57670645 z"
         id="path3"
         sodipodi:nodetypes="cscczsscczzzzcc"
         style="display:inline;stroke-width:1.29958" /></g></g></svg>
