<?xml version="1.0" encoding="UTF-8" standalone="no"?>
<svg
   width="31.934999"
   height="109.734"
   viewBox="0 -76.617 31.934998 109.734"
   version="1.1"
   id="svg1"
   sodipodi:docname="_bazo_ojn.svg"
   xml:space="preserve"
   inkscape:version="1.3.2 (091e20e, 2023-11-25, custom)"
   xmlns:inkscape="http://www.inkscape.org/namespaces/inkscape"
   xmlns:sodipodi="http://sodipodi.sourceforge.net/DTD/sodipodi-0.dtd"
   xmlns="http://www.w3.org/2000/svg"
   xmlns:svg="http://www.w3.org/2000/svg"><defs
     id="defs1" /><sodipodi:namedview
     id="namedview1"
     pagecolor="#ffffff"
     bordercolor="#000000"
     borderopacity="0.25"
     inkscape:showpageshadow="2"
     inkscape:pageopacity="0.0"
     inkscape:pagecheckerboard="0"
     inkscape:deskcolor="#d1d1d1"
     inkscape:zoom="7.0807588"
     inkscape:cx="34.600811"
     inkscape:cy="65.17663"
     inkscape:window-width="1920"
     inkscape:window-height="991"
     inkscape:window-x="-9"
     inkscape:window-y="-9"
     inkscape:window-maximized="1"
     inkscape:current-layer="use1" /><symbol
     id="seguihis_507"
     width="5.8540001"
     height="27.434"
     viewBox="0 -19.154 5.854 27.434"><path
       d="m 5.854,-6 v 0 q 0,0.65 -0.062,1.356 Q 5.73,-3.938 5.572,-3.255 5.414,-2.572 5.136,-1.957 4.857,-1.342 4.421,-0.876 3.984,-0.41 3.375,-0.135 2.766,0.141 1.939,0.141 1.676,0.141 1.5,0.129 1.324,0.117 1.175,0.091 1.025,0.064 0.87,0.026 0.715,-0.012 0.48,-0.064 v -0.809 q 0.165,0.059 0.375,0.1 0.182,0.035 0.428,0.064 0.246,0.029 0.545,0.029 0.656,0 1.137,-0.237 0.48,-0.237 0.82,-0.639 0.34,-0.401 0.557,-0.931 0.217,-0.531 0.34,-1.122 Q 4.805,-4.201 4.849,-4.816 4.893,-5.432 4.893,-6 Z"
       id="path1" /></symbol><g
     id="g1"><g
       id="use1"
       transform="matrix(4,0,0,4,0,-0.001)"><path
         d="m 6.7825426,-6.0032912 v 0 L 6.1669614,-4.4541698 5.6395506,-3.126931 C 5.4535741,-2.6589178 5.3213333,-2.367 5.136,-1.957 4.95,-1.547 4.7116667,-1.1866667 4.421,-0.876 4.1296667,-0.56533333 3.781,-0.31833333 3.375,-0.135 2.969,0.049 2.4903333,0.141 1.939,0.141 1.7636667,0.141 1.6173333,0.137 1.5,0.129 1.3826667,0.121 1.2743333,0.10833333 1.175,0.091 1.075,0.073 0.97333333,0.05133333 0.87,0.026 0.76666667,6.6666667e-4 0.63666667,-0.02933333 0.48,-0.064 v -0.809 c 0.11,0.0393333 0.235,0.0726667 0.375,0.1 0.12133333,0.0233333 0.264,0.0446667 0.428,0.064 0.164,0.0193333 0.3456667,0.029 0.545,0.029 0.4373333,0 0.8163333,-0.079 1.137,-0.237 0.32,-0.158 0.5933333,-0.371 0.82,-0.639 0.2266667,-0.2673333 0.4351119,-0.5588369 0.6069316,-0.8997928 0.1833165,-0.3637698 0.323402,-0.6508985 0.4894513,-1.074767 l 0.5179976,-1.3222747 0.4571621,-1.1504567 z"
         id="path4"
         style="display:none"
         sodipodi:nodetypes="ccsscccsscscccssccssscc" /><path
         d="m 6.7825426,-6.0032912 v 0 l -3.481,8.7599999 h -0.926 l 3.481,-8.7599999 z"
         id="path5" /><path
         d="M 2.3755426,2.7567087 2.5871371,2.2991248 c 0,0 0.6988768,-0.1169568 1.3775363,-0.3858905 C 4.6202125,1.6534625 5.0549452,1.3895033 5.5781802,1.0076026 6.1086747,0.62040338 6.572142,0.24374379 6.8352374,-0.07547661 l 0.668507,0.56543644 C 7.157113,0.93723873 6.9902806,1.1073831 6.4130499,1.5505718 5.8358192,1.9937605 5.3764223,2.2819235 4.6916502,2.5947586 4.0068781,2.9075937 3.1415314,3.1824336 3.1415314,3.1824336 Z"
         id="path6"
         sodipodi:nodetypes="cssscczzcc"
         style="display:inline;stroke-width:1.29958" /><path
         d="m 0.551,0 v 0 q 0,-0.65 0.061,-1.356 0.062,-0.706 0.22,-1.389 0.158,-0.683 0.437,-1.298 0.278,-0.615 0.714,-1.081 0.437,-0.466 1.046,-0.741 0.61,-0.276 1.436,-0.276 0.264,0 0.439,0.012 0.176,0.012 0.325,0.038 0.15,0.027 0.305,0.065 0.155,0.038 0.39,0.09 v 0.809 Q 5.76,-5.18 5.549,-5.221 5.367,-5.256 5.121,-5.288 4.875,-5.32 4.576,-5.32 q -0.656,0 -1.137,0.237 -0.48,0.237 -0.82,0.639 -0.34,0.401 -0.557,0.931 Q 1.846,-2.982 1.723,-2.391 1.6,-1.799 1.556,-1.184 1.512,-0.568 1.512,0 Z"
         id="path2"
         transform="translate(-0.08491248,-0.101497)"
         style="display:none" /><path
         d="m 3.7941768,-4.8890676 c -0.5236595,0.3170153 -0.9016573,0.7171749 -1.1134378,0.9871749 -0.2117804,0.2693333 -0.3913051,0.5513333 -0.538574,0.846 -0.1466172,0.2953333 -0.2658659,0.5953333 -0.357746,0.9 -0.091228,0.3046667 -0.1580209,0.6083333 -0.2003769,0.911 -0.041705,0.30266658 -0.062557,0.59466658 -0.062557,0.87599998 H 0.55869885 c 0,-0.64466668 0.0746119,-1.23366668 0.22383566,-1.76699998 0.14857211,-0.5326667 0.34406179,-1.013 0.58646889,-1.441 0.2424072,-0.428 0.5213058,-0.806 0.8366958,-1.134 0.3147383,-0.328 0.7003634,-0.6267257 1.4795281,-0.9947395 0.7237963,-0.3418624 1.2180973,-0.405415 1.9204791,-0.423721 0.6064154,-0.015805 1.1768362,0.126062 1.1768362,0.126062 l -0.3090264,0.7776707 c 0,0 -0.4278716,-0.1078501 -1.0183244,-0.1194947 -0.5740496,-0.011321 -1.0558424,0.089685 -1.661015,0.4560476 z"
         id="path3"
         sodipodi:nodetypes="scccccccscssccss"
         style="stroke-width:0.98866" /></g></g></svg>
