<svg xmlns="http://www.w3.org/2000/svg" xmlns:xlink="http://www.w3.org/1999/xlink" width="25.617" height="109.734" viewBox="0 -76.617 25.617 109.734"><symbol id="seguihis_507" width="5.854" height="27.434" viewBox="0 -19.154 5.854 27.434"><path d="M 5.854 -6 L 5.854 -6 Q 5.854 -5.35 5.792 -4.644 Q 5.73 -3.938 5.572 -3.255 Q 5.414 -2.572 5.136 -1.957 Q 4.857 -1.342 4.421 -0.876 Q 3.984 -0.41 3.375 -0.135 Q 2.766 0.141 1.939 0.141 Q 1.676 0.141 1.5 0.129 Q 1.324 0.117 1.175 0.091 Q 1.025 0.064 0.87 0.026 Q 0.715 -0.012 0.48 -0.064 L 0.48 -0.873 Q 0.645 -0.814 0.855 -0.773 Q 1.037 -0.738 1.283 -0.709 Q 1.529 -0.68 1.828 -0.68 Q 2.484 -0.68 2.965 -0.917 Q 3.445 -1.154 3.785 -1.556 Q 4.125 -1.957 4.342 -2.487 Q 4.559 -3.018 4.682 -3.609 Q 4.805 -4.201 4.849 -4.816 Q 4.893 -5.432 4.893 -6 Z " /></symbol><g transform=""><use href="#seguihis_507" transform="translate(0 -76.617) scale(4)" /></g></svg>