<?xml version="1.0" encoding="UTF-8" standalone="no"?>
<svg
   width="31.934999"
   height="109.734"
   viewBox="0 -76.617 31.934998 109.734"
   version="1.1"
   id="svg1"
   sodipodi:docname="ajn.svg"
   xml:space="preserve"
   inkscape:version="1.3.2 (091e20e, 2023-11-25, custom)"
   xmlns:inkscape="http://www.inkscape.org/namespaces/inkscape"
   xmlns:sodipodi="http://sodipodi.sourceforge.net/DTD/sodipodi-0.dtd"
   xmlns="http://www.w3.org/2000/svg"
   xmlns:svg="http://www.w3.org/2000/svg"><defs
     id="defs1" /><sodipodi:namedview
     id="namedview1"
     pagecolor="#ffffff"
     bordercolor="#000000"
     borderopacity="0.25"
     inkscape:showpageshadow="2"
     inkscape:pageopacity="0.0"
     inkscape:pagecheckerboard="0"
     inkscape:deskcolor="#d1d1d1"
     inkscape:zoom="10.013705"
     inkscape:cx="9.4370663"
     inkscape:cy="71.551937"
     inkscape:window-width="1920"
     inkscape:window-height="991"
     inkscape:window-x="-9"
     inkscape:window-y="-9"
     inkscape:window-maximized="1"
     inkscape:current-layer="use1" /><symbol
     id="seguihis_507"
     width="5.8540001"
     height="27.434"
     viewBox="0 -19.154 5.854 27.434"><path
       d="m 5.854,-6 v 0 q 0,0.65 -0.062,1.356 Q 5.73,-3.938 5.572,-3.255 5.414,-2.572 5.136,-1.957 4.857,-1.342 4.421,-0.876 3.984,-0.41 3.375,-0.135 2.766,0.141 1.939,0.141 1.676,0.141 1.5,0.129 1.324,0.117 1.175,0.091 1.025,0.064 0.87,0.026 0.715,-0.012 0.48,-0.064 v -0.809 q 0.165,0.059 0.375,0.1 0.182,0.035 0.428,0.064 0.246,0.029 0.545,0.029 0.656,0 1.137,-0.237 0.48,-0.237 0.82,-0.639 0.34,-0.401 0.557,-0.931 0.217,-0.531 0.34,-1.122 Q 4.805,-4.201 4.849,-4.816 4.893,-5.432 4.893,-6 Z"
       id="path1" /></symbol><g
     id="g1"><g
       id="use1"
       transform="matrix(4,0,0,4,0,-0.001)"><path
         id="path5"
         d="M 5.8564453,-6.0031211 5.581543,-5.3117148 c -0.1268057,0.3191087 -0.414533,0.7857257 -0.6108399,1.1103515 -0.1816404,0.3003721 -0.4444245,0.654901 -0.7075195,0.9741211 -0.2630951,0.3192201 -0.6063677,0.6351149 -0.9589844,0.9145508 -0.352616,0.2801274 -0.7754298,0.5225468 -1.243164,0.7612305 -0.4677334,0.2393752 -0.9404528,0.4325062 -1.54394536,0.61523434 l 4.8828e-4,0.85058594 c 0,0 0.76645828,-0.16387236 1.36263628,-0.38247193 C 2.6013435,-0.73252774 2.9989408,-0.92525583 3.473663,-1.2474441 3.9385503,-1.5629576 4.1806641,-1.7863242 4.1806641,-1.7863242 L 2.3754883,2.7566445 3.1416016,3.1824258 c 0,0 0.8650332,-0.2750559 1.5498046,-0.5878906 C 5.3761777,2.2817004 5.8358558,1.9937781 6.4130859,1.5505898 6.9903161,1.1074016 7.1572752,0.93732142 7.5039062,0.49004297 L 6.8354492,-0.07538672 C 6.5723541,0.24383336 6.3204607,0.49684793 5.7899667,0.88404677 5.2667322,1.2659471 4.9522439,1.446546 4.3179133,1.7545015 3.7039601,2.0525642 3.5830078,2.0481484 3.5830078,2.0481484 l 3.199707,-8.0512695 z"
         sodipodi:nodetypes="ccssccccsscccssccssccc" /></g></g></svg>
