<svg xmlns="http://www.w3.org/2000/svg" xmlns:xlink="http://www.w3.org/1999/xlink" width="21.047" height="109.734" viewBox="0 -76.617 21.047 109.734"><symbol id="seguihis_493" width="4.781" height="27.434" viewBox="0 -19.154 4.781 27.434"><path d="M 1.102 -6 L 1.102 -6 L 2.062 -6 L 2.062 -0.094 Q 2.062 2.004 3.668 2.004 Q 3.762 2.004 3.908 1.986 Q 4.055 1.969 4.213 1.937 Q 4.371 1.904 4.523 1.854 Q 4.676 1.805 4.781 1.74 L 4.781 2.637 Q 4.682 2.684 4.538 2.719 Q 4.395 2.754 4.242 2.777 Q 4.09 2.801 3.943 2.812 Q 3.797 2.824 3.691 2.824 Q 3.064 2.824 2.581 2.619 Q 2.098 2.414 1.77 2.024 Q 1.441 1.635 1.271 1.061 Q 1.102 0.486 1.102 -0.252 Z " /></symbol><g transform=""><use href="#seguihis_493" transform="translate(0 -76.617) scale(4)" /></g></svg>