<svg xmlns="http://www.w3.org/2000/svg" xmlns:xlink="http://www.w3.org/1999/xlink" width="27.117" height="109.734" viewBox="0 -76.617 27.117 109.734"><symbol id="seguihis_487" width="6.229" height="27.434" viewBox="0 -19.154 6.229 27.434"><path d="M 3.732 -5.027 L 3.732 -5.027 Q 3.686 -5.033 3.633 -5.039 Q 3.586 -5.045 3.53 -5.048 Q 3.475 -5.051 3.41 -5.051 Q 2.936 -5.051 2.584 -4.872 Q 2.232 -4.693 1.998 -4.389 Q 1.764 -4.084 1.649 -3.674 Q 1.535 -3.264 1.535 -2.807 Q 1.535 -2.391 1.649 -2.004 Q 1.764 -1.617 1.992 -1.324 Q 2.221 -1.031 2.555 -0.855 Q 2.889 -0.68 3.328 -0.68 Q 3.768 -0.68 4.122 -0.879 Q 4.477 -1.078 4.726 -1.441 Q 4.975 -1.805 5.109 -2.314 Q 5.244 -2.824 5.244 -3.451 Q 5.244 -4.406 4.998 -5.268 Q 4.752 -6.129 4.26 -6.779 Q 3.768 -7.43 3.029 -7.811 Q 2.291 -8.191 1.312 -8.191 L 1.312 -9.012 Q 2.045 -9.012 2.692 -8.827 Q 3.34 -8.643 3.888 -8.297 Q 4.436 -7.951 4.869 -7.462 Q 5.303 -6.973 5.604 -6.363 Q 5.906 -5.754 6.067 -5.036 Q 6.229 -4.318 6.229 -3.527 Q 6.229 -3.059 6.158 -2.604 Q 6.088 -2.15 5.936 -1.743 Q 5.783 -1.336 5.555 -0.99 Q 5.326 -0.645 5.004 -0.393 Q 4.682 -0.141 4.271 0 Q 3.861 0.141 3.352 0.141 Q 2.684 0.141 2.162 -0.091 Q 1.641 -0.322 1.283 -0.729 Q 0.926 -1.137 0.738 -1.693 Q 0.551 -2.25 0.551 -2.906 Q 0.551 -3.521 0.727 -4.063 Q 0.902 -4.605 1.239 -5.007 Q 1.576 -5.408 2.068 -5.64 Q 2.561 -5.871 3.193 -5.871 Q 3.322 -5.871 3.428 -5.862 Q 3.533 -5.854 3.615 -5.842 Q 3.709 -5.824 3.779 -5.812 Z " /></symbol><g transform=""><use href="#seguihis_487" transform="translate(0 -76.617) scale(4)" /></g></svg>