<svg xmlns="http://www.w3.org/2000/svg" xmlns:xlink="http://www.w3.org/1999/xlink" width="25.617" height="109.734" viewBox="0 -76.617 25.617 109.734"><symbol id="seguihis_506" width="5.924" height="27.434" viewBox="0 -19.154 5.924 27.434"><path d="M 1.512 -6 L 1.512 -6 Q 1.512 -5.432 1.556 -4.816 Q 1.6 -4.201 1.723 -3.609 Q 1.846 -3.018 2.062 -2.487 Q 2.279 -1.957 2.619 -1.556 Q 2.959 -1.154 3.439 -0.917 Q 3.92 -0.68 4.576 -0.68 Q 4.875 -0.68 5.121 -0.709 Q 5.367 -0.738 5.549 -0.773 Q 5.76 -0.814 5.924 -0.873 L 5.924 -0.064 Q 5.689 -0.012 5.534 0.026 Q 5.379 0.064 5.229 0.091 Q 5.08 0.117 4.904 0.129 Q 4.729 0.141 4.465 0.141 Q 3.639 0.141 3.029 -0.135 Q 2.42 -0.41 1.983 -0.876 Q 1.547 -1.342 1.269 -1.957 Q 0.99 -2.572 0.832 -3.255 Q 0.674 -3.938 0.612 -4.644 Q 0.551 -5.35 0.551 -6 Z " /></symbol><g transform=""><use href="#seguihis_506" transform="translate(0 -76.617) scale(4)" /></g></svg>