<svg xmlns="http://www.w3.org/2000/svg" xmlns:xlink="http://www.w3.org/1999/xlink" width="25.359" height="109.734" viewBox="0 -76.617 25.359 109.734"><symbol id="seguihis_495" width="5.789" height="27.434" viewBox="0 -19.154 5.789 27.434"><path d="M 5.789 -3.381 L 5.789 -3.381 Q 5.789 -2.771 5.566 -2.329 Q 5.344 -1.887 4.98 -1.603 Q 4.617 -1.318 4.16 -1.181 Q 3.703 -1.043 3.229 -1.043 Q 3.006 -1.043 2.798 -1.069 Q 2.59 -1.096 2.426 -1.131 Q 2.232 -1.172 2.062 -1.225 L 2.062 2.76 L 1.102 2.76 L 1.102 -2.432 Q 1.312 -2.326 1.538 -2.224 Q 1.764 -2.121 2.01 -2.039 Q 2.256 -1.957 2.528 -1.907 Q 2.801 -1.857 3.111 -1.857 Q 3.457 -1.857 3.765 -1.969 Q 4.072 -2.08 4.304 -2.276 Q 4.535 -2.473 4.67 -2.751 Q 4.805 -3.029 4.805 -3.363 Q 4.805 -3.715 4.658 -3.996 Q 4.512 -4.277 4.257 -4.497 Q 4.002 -4.717 3.659 -4.872 Q 3.316 -5.027 2.918 -5.13 Q 2.52 -5.232 2.086 -5.279 Q 1.652 -5.326 1.225 -5.326 L 1.225 -6.141 Q 1.793 -6.141 2.353 -6.076 Q 2.912 -6.012 3.419 -5.874 Q 3.926 -5.736 4.359 -5.517 Q 4.793 -5.297 5.112 -4.992 Q 5.432 -4.688 5.61 -4.286 Q 5.789 -3.885 5.789 -3.381 Z " /></symbol><g transform=""><use href="#seguihis_495" transform="translate(0 -76.617) scale(4)" /></g></svg>