<svg xmlns="http://www.w3.org/2000/svg" xmlns:xlink="http://www.w3.org/1999/xlink" width="23.156" height="109.734" viewBox="0 -76.617 23.156 109.734"><symbol id="seguihis_502" width="5.238" height="27.434" viewBox="0 -19.154 5.238 27.434"><path d="M 5.238 -5.32 L 5.238 -5.32 Q 4.846 -5.174 4.406 -4.942 Q 3.967 -4.711 3.539 -4.383 Q 3.896 -4.037 4.207 -3.636 Q 4.518 -3.234 4.746 -2.777 Q 4.975 -2.32 5.106 -1.811 Q 5.238 -1.301 5.238 -0.738 Q 5.238 0.082 5.086 0.741 Q 4.934 1.4 4.635 1.863 Q 4.336 2.326 3.899 2.575 Q 3.463 2.824 2.895 2.824 Q 2.326 2.824 1.89 2.575 Q 1.453 2.326 1.154 1.863 Q 0.855 1.4 0.703 0.741 Q 0.551 0.082 0.551 -0.738 Q 0.551 -1.301 0.683 -1.811 Q 0.814 -2.32 1.046 -2.777 Q 1.277 -3.234 1.588 -3.636 Q 1.898 -4.037 2.256 -4.383 Q 1.822 -4.711 1.386 -4.942 Q 0.949 -5.174 0.551 -5.32 L 0.551 -6.141 Q 0.791 -6.076 1.072 -5.971 Q 1.354 -5.865 1.655 -5.71 Q 1.957 -5.555 2.271 -5.358 Q 2.584 -5.162 2.895 -4.928 Q 3.205 -5.162 3.519 -5.358 Q 3.832 -5.555 4.137 -5.71 Q 4.441 -5.865 4.72 -5.971 Q 4.998 -6.076 5.238 -6.141 Z M 4.254 -0.68 L 4.254 -0.68 Q 4.254 -1.172 4.151 -1.614 Q 4.049 -2.057 3.864 -2.449 Q 3.68 -2.842 3.431 -3.185 Q 3.182 -3.527 2.895 -3.82 Q 2.602 -3.527 2.355 -3.185 Q 2.109 -2.842 1.925 -2.449 Q 1.74 -2.057 1.638 -1.614 Q 1.535 -1.172 1.535 -0.68 Q 1.535 -0.064 1.629 0.431 Q 1.723 0.926 1.898 1.277 Q 2.074 1.629 2.326 1.816 Q 2.578 2.004 2.895 2.004 Q 3.211 2.004 3.463 1.816 Q 3.715 1.629 3.891 1.277 Q 4.066 0.926 4.16 0.431 Q 4.254 -0.064 4.254 -0.68 Z " /></symbol><g transform=""><use href="#seguihis_502" transform="translate(0 -76.617) scale(4)" /></g></svg>