<svg xmlns="http://www.w3.org/2000/svg" xmlns:xlink="http://www.w3.org/1999/xlink" width="25.359" height="109.734" viewBox="0 -76.617 25.359 109.734"><symbol id="seguihis_485" width="5.238" height="27.434" viewBox="0 -19.154 5.238 27.434"><path d="M 0.551 -2.619 L 0.551 -2.619 Q 0.551 -3.229 0.773 -3.671 Q 0.996 -4.113 1.359 -4.397 Q 1.723 -4.682 2.18 -4.819 Q 2.637 -4.957 3.111 -4.957 Q 3.334 -4.957 3.542 -4.928 Q 3.75 -4.898 3.914 -4.863 Q 4.107 -4.822 4.277 -4.775 L 4.277 -9.012 L 5.238 -9.012 L 5.238 -3.568 Q 5.027 -3.674 4.802 -3.776 Q 4.576 -3.879 4.33 -3.961 Q 4.084 -4.043 3.812 -4.093 Q 3.539 -4.143 3.229 -4.143 Q 2.883 -4.143 2.575 -4.031 Q 2.268 -3.92 2.036 -3.724 Q 1.805 -3.527 1.67 -3.249 Q 1.535 -2.971 1.535 -2.637 Q 1.535 -2.285 1.682 -2.004 Q 1.828 -1.723 2.083 -1.503 Q 2.338 -1.283 2.681 -1.128 Q 3.023 -0.973 3.422 -0.87 Q 3.82 -0.768 4.254 -0.721 Q 4.688 -0.674 5.115 -0.674 L 5.115 0.141 Q 4.547 0.141 3.987 0.076 Q 3.428 0.012 2.921 -0.126 Q 2.414 -0.264 1.98 -0.483 Q 1.547 -0.703 1.228 -1.008 Q 0.908 -1.312 0.729 -1.714 Q 0.551 -2.115 0.551 -2.619 Z " /></symbol><g transform=""><use href="#seguihis_485" transform="translate(0 -76.617) scale(4)" /></g></svg>