<?xml version="1.0" encoding="UTF-8" standalone="no"?>
<svg
   width="47.700001"
   height="109.734"
   viewBox="0 -76.617 47.700002 109.734"
   version="1.1"
   id="svg1"
   sodipodi:docname="kaj.svg"
   xml:space="preserve"
   inkscape:version="1.3.2 (091e20e, 2023-11-25, custom)"
   xmlns:inkscape="http://www.inkscape.org/namespaces/inkscape"
   xmlns:sodipodi="http://sodipodi.sourceforge.net/DTD/sodipodi-0.dtd"
   xmlns="http://www.w3.org/2000/svg"
   xmlns:svg="http://www.w3.org/2000/svg"><defs
     id="defs1" /><sodipodi:namedview
     id="namedview1"
     pagecolor="#ffffff"
     bordercolor="#000000"
     borderopacity="0.25"
     inkscape:showpageshadow="2"
     inkscape:pageopacity="0.0"
     inkscape:pagecheckerboard="0"
     inkscape:deskcolor="#d1d1d1"
     inkscape:zoom="7.0807589"
     inkscape:cx="4.0956062"
     inkscape:cy="57.126645"
     inkscape:window-width="1920"
     inkscape:window-height="991"
     inkscape:window-x="-9"
     inkscape:window-y="-9"
     inkscape:window-maximized="1"
     inkscape:current-layer="svg1" /><symbol
     id="seguihis_485"
     width="5.2379999"
     height="27.434"
     viewBox="0 -19.154 5.238 27.434"><path
       d="m 0.551,-2.619 v 0 q 0,-0.61 0.222,-1.052 0.223,-0.442 0.586,-0.726 0.364,-0.285 0.821,-0.422 0.457,-0.138 0.931,-0.138 0.223,0 0.431,0.029 0.208,0.03 0.372,0.065 0.193,0.041 0.363,0.088 v -4.237 h 0.961 v 5.444 Q 5.027,-3.674 4.802,-3.776 4.576,-3.879 4.33,-3.961 4.084,-4.043 3.812,-4.093 q -0.273,-0.05 -0.583,-0.05 -0.346,0 -0.654,0.112 -0.307,0.111 -0.539,0.307 -0.231,0.197 -0.366,0.475 -0.135,0.278 -0.135,0.612 0,0.352 0.147,0.633 0.146,0.281 0.401,0.501 0.255,0.22 0.598,0.375 0.342,0.155 0.741,0.258 0.398,0.102 0.832,0.149 0.434,0.047 0.861,0.047 V 0.141 Q 4.547,0.141 3.987,0.076 3.428,0.012 2.921,-0.126 2.414,-0.264 1.98,-0.483 1.547,-0.703 1.228,-1.008 0.908,-1.312 0.729,-1.714 0.551,-2.115 0.551,-2.619 Z"
       id="path1" /></symbol><g
     id="g1"><path
       id="path2"
       d="m 4.2768555,-9.0119102 v 4.2368165 c -0.1133333,-0.031333 -0.2341265,-0.060557 -0.362793,-0.087891 -0.1093332,-0.023333 -0.2334038,-0.044941 -0.3720703,-0.064941 -0.1386665,-0.019333 -0.2824858,-0.029297 -0.4311524,-0.029297 -0.3159996,0 -0.6259977,0.046184 -0.930664,0.1381836 -0.3046664,0.091333 -0.5786227,0.2318752 -0.8212891,0.421875 -0.2419997,0.1893332 -0.43727096,0.4314079 -0.58593748,0.7260743 -0.14799985,0.2946663 -0.22216797,0.6455798 -0.22216797,1.0522461 0,0.3359996 0.0595561,0.637452 0.17822266,0.9047851 0.11933321,0.2679997 0.28569029,0.5033882 0.49902339,0.7060547 0.2126665,0.20333312 0.4632868,0.37823582 0.7519532,0.52490234 0.289333,0.14599985 0.6029183,0.26493368 0.9409179,0.35693359 0.3379997,0.09199991 0.8539262,0.19960572 1.3351335,0.21097518 C 4.9677531,0.101623 5.6205017,0.04829542 6.362793,-0.20185156 6.9731596,-0.40754083 7.3931501,-0.62028435 7.8837891,-0.91767187 8.3017506,-1.1710081 8.7783203,-1.5597617 8.7783203,-1.5597617 L 6.9726562,2.983207 h 0.9262696 l 3.4809572,-8.7597656 h -0.92627 l -0.274902,0.6914063 c -0.126806,0.3191084 -0.4145331,0.7857261 -0.6108399,1.1103515 -0.1816403,0.3003717 -0.3570225,0.6050967 -0.6201172,0.9243164 -0.2630947,0.31922 -0.6048728,0.6508188 -0.9335937,0.9580078 C 7.6909615,-1.7904482 7.3553838,-1.6109528 6.8017578,-1.3185508 5.9855895,-0.86782329 5.5159973,-0.75126016 4.8364709,-0.70765442 4.2027843,-0.66699026 3.6872081,-0.80182038 3.421875,-0.86982031 3.1558753,-0.93848691 2.9091521,-1.0247879 2.6811523,-1.1281211 2.4524859,-1.2314543 2.2530076,-1.3564546 2.0830078,-1.5031211 1.913008,-1.6497876 1.7794621,-1.8167645 1.6821289,-2.0040977 c -0.098,-0.1873331 -0.1469726,-0.398146 -0.1469727,-0.6328125 0,-0.2226664 0.044766,-0.4269715 0.1347657,-0.6123046 0.09,-0.1853332 0.2122111,-0.3432762 0.3662109,-0.4746094 0.1546665,-0.1306666 0.3343961,-0.233129 0.5390625,-0.3071289 0.2053331,-0.074667 0.4231422,-0.1118164 0.6538086,-0.1118164 0.2066665,0 0.401008,0.016471 0.5830078,0.049805 0.1813332,0.033333 0.3540666,0.077169 0.5180664,0.1318359 0.1639999,0.054667 0.3210132,0.116392 0.4716797,0.1850586 0.1499999,0.068 0.2953686,0.1373412 0.4360352,0.2080078 v -5.4438477 z"
       transform="matrix(4,0,0,4,0,-0.001)"
       sodipodi:nodetypes="ccccscccscccssssccccccsssssccscssccscscccc" /></g></svg>
