<svg xmlns="http://www.w3.org/2000/svg" xmlns:xlink="http://www.w3.org/1999/xlink" width="22.172" height="109.734" viewBox="0 -76.617 22.172 109.734"><symbol id="seguihis_503" width="5.074" height="27.434" viewBox="0 -19.154 5.074 27.434"><path d="M 5.062 -0.275 L 5.062 -0.275 Q 4.365 0.141 3.422 0.141 Q 2.139 0.141 1.348 -0.691 Q 0.562 -1.529 0.562 -2.859 Q 0.562 -4.348 1.412 -5.238 Q 2.262 -6.141 3.68 -6.141 Q 4.459 -6.141 5.074 -5.848 L 5.074 -4.863 Q 4.4 -5.332 3.645 -5.332 Q 2.725 -5.332 2.133 -4.67 Q 1.547 -4.014 1.547 -2.941 Q 1.547 -1.881 2.098 -1.277 Q 2.654 -0.668 3.586 -0.668 Q 4.365 -0.668 5.062 -1.189 Z " /></symbol><g transform=""><use href="#seguihis_503" transform="translate(0 -76.617) scale(4)" /></g></svg>