<svg xmlns="http://www.w3.org/2000/svg" xmlns:xlink="http://www.w3.org/1999/xlink" width="25.617" height="109.734" viewBox="0 -76.617 25.617 109.734"><symbol id="seguihis_508" width="5.924" height="27.434" viewBox="0 -19.154 5.924 27.434"><path d="M 0.551 0 L 0.551 0 Q 0.551 -0.65 0.612 -1.356 Q 0.674 -2.062 0.832 -2.745 Q 0.99 -3.428 1.269 -4.043 Q 1.547 -4.658 1.983 -5.124 Q 2.42 -5.59 3.029 -5.865 Q 3.639 -6.141 4.465 -6.141 Q 4.729 -6.141 4.904 -6.129 Q 5.08 -6.117 5.229 -6.091 Q 5.379 -6.064 5.534 -6.026 Q 5.689 -5.988 5.924 -5.936 L 5.924 -5.127 Q 5.76 -5.18 5.549 -5.221 Q 5.367 -5.256 5.121 -5.288 Q 4.875 -5.32 4.576 -5.32 Q 3.92 -5.32 3.439 -5.083 Q 2.959 -4.846 2.619 -4.444 Q 2.279 -4.043 2.062 -3.513 Q 1.846 -2.982 1.723 -2.391 Q 1.6 -1.799 1.556 -1.184 Q 1.512 -0.568 1.512 0 Z " /></symbol><g transform=""><use href="#seguihis_508" transform="translate(0 -76.617) scale(4)" /></g></svg>