<?xml version="1.0" encoding="UTF-8" standalone="no"?>
<svg
   width="28.700001"
   height="109.734"
   viewBox="0 -76.617 28.7 109.734"
   version="1.1"
   id="svg1"
   sodipodi:docname="oj.svg"
   xml:space="preserve"
   inkscape:version="1.3.2 (091e20e, 2023-11-25, custom)"
   xmlns:inkscape="http://www.inkscape.org/namespaces/inkscape"
   xmlns:sodipodi="http://sodipodi.sourceforge.net/DTD/sodipodi-0.dtd"
   xmlns="http://www.w3.org/2000/svg"
   xmlns:svg="http://www.w3.org/2000/svg"><defs
     id="defs1" /><sodipodi:namedview
     id="namedview1"
     pagecolor="#ffffff"
     bordercolor="#000000"
     borderopacity="0.25"
     inkscape:showpageshadow="2"
     inkscape:pageopacity="0.0"
     inkscape:pagecheckerboard="0"
     inkscape:deskcolor="#d1d1d1"
     inkscape:zoom="10.013705"
     inkscape:cx="24.466468"
     inkscape:cy="101.51088"
     inkscape:window-width="1920"
     inkscape:window-height="991"
     inkscape:window-x="-9"
     inkscape:window-y="-9"
     inkscape:window-maximized="1"
     inkscape:current-layer="use1" /><symbol
     id="seguihis_507"
     width="5.8540001"
     height="27.434"
     viewBox="0 -19.154 5.854 27.434"><path
       d="m 5.854,-6 v 0 q 0,0.65 -0.062,1.356 Q 5.73,-3.938 5.572,-3.255 5.414,-2.572 5.136,-1.957 4.857,-1.342 4.421,-0.876 3.984,-0.41 3.375,-0.135 2.766,0.141 1.939,0.141 1.676,0.141 1.5,0.129 1.324,0.117 1.175,0.091 1.025,0.064 0.87,0.026 0.715,-0.012 0.48,-0.064 v -0.809 q 0.165,0.059 0.375,0.1 0.182,0.035 0.428,0.064 0.246,0.029 0.545,0.029 0.656,0 1.137,-0.237 0.48,-0.237 0.82,-0.639 0.34,-0.401 0.557,-0.931 0.217,-0.531 0.34,-1.122 Q 4.805,-4.201 4.849,-4.816 4.893,-5.432 4.893,-6 Z"
       id="path1" /></symbol><g
     id="g1"><g
       id="use1"
       transform="matrix(4,0,0,4,0,-0.001)"><path
         id="path5"
         d="M 5.526875,-6.1295859 C 4.824494,-6.11128 4.3302605,-6.0476199 3.6064649,-5.7057578 2.827301,-5.3377444 2.4417107,-5.0391286 2.1269727,-4.7111289 1.8115829,-4.3831292 1.5329538,-4.0048511 1.2905468,-3.5768516 1.04814,-3.148852 0.85269306,-2.6685998 0.70412109,-2.1359336 0.55489748,-1.6026008 0.48,-1.0135098 0.48,-0.36884375 h 0.9628906 c 0,-0.28133312 0.020795,-0.57331029 0.0625,-0.87597655 0.042356,-0.3026664 0.1089675,-0.6064664 0.2001954,-0.9111328 0.09188,-0.3046664 0.2112931,-0.6045694 0.3579101,-0.8999024 0.1472688,-0.2946664 0.326794,-0.5768583 0.5385743,-0.8461914 0.2117803,-0.2699997 0.5896222,-0.6698014 1.1132811,-0.9868164 0.6051721,-0.3663622 1.0870838,-0.4673757 1.6611328,-0.4560547 0.047628,9.393e-4 0.092322,0.00329 0.1376953,0.00537 l -3.217285,8.0961925 h 0.9262695 l 3.171875,-7.9824218 0.309082,-0.7773438 c 0,0 -0.5708313,-0.1422698 -1.1772461,-0.1264648 z" /></g></g></svg>
