<?xml version="1.0" encoding="UTF-8" standalone="no"?>
<svg
   width="31.934999"
   height="109.734"
   viewBox="0 -76.617 31.934998 109.734"
   version="1.1"
   id="svg1"
   sodipodi:docname="ojn.svg"
   xml:space="preserve"
   inkscape:version="1.3.2 (091e20e, 2023-11-25, custom)"
   xmlns:inkscape="http://www.inkscape.org/namespaces/inkscape"
   xmlns:sodipodi="http://sodipodi.sourceforge.net/DTD/sodipodi-0.dtd"
   xmlns="http://www.w3.org/2000/svg"
   xmlns:svg="http://www.w3.org/2000/svg"><defs
     id="defs1" /><sodipodi:namedview
     id="namedview1"
     pagecolor="#ffffff"
     bordercolor="#000000"
     borderopacity="0.25"
     inkscape:showpageshadow="2"
     inkscape:pageopacity="0.0"
     inkscape:pagecheckerboard="0"
     inkscape:deskcolor="#d1d1d1"
     inkscape:zoom="10.013705"
     inkscape:cx="-5.3926093"
     inkscape:cy="65.460285"
     inkscape:window-width="1920"
     inkscape:window-height="991"
     inkscape:window-x="-9"
     inkscape:window-y="-9"
     inkscape:window-maximized="1"
     inkscape:current-layer="use1" /><symbol
     id="seguihis_507"
     width="5.8540001"
     height="27.434"
     viewBox="0 -19.154 5.854 27.434"><path
       d="m 5.854,-6 v 0 q 0,0.65 -0.062,1.356 Q 5.73,-3.938 5.572,-3.255 5.414,-2.572 5.136,-1.957 4.857,-1.342 4.421,-0.876 3.984,-0.41 3.375,-0.135 2.766,0.141 1.939,0.141 1.676,0.141 1.5,0.129 1.324,0.117 1.175,0.091 1.025,0.064 0.87,0.026 0.715,-0.012 0.48,-0.064 v -0.809 q 0.165,0.059 0.375,0.1 0.182,0.035 0.428,0.064 0.246,0.029 0.545,0.029 0.656,0 1.137,-0.237 0.48,-0.237 0.82,-0.639 0.34,-0.401 0.557,-0.931 0.217,-0.531 0.34,-1.122 Q 4.805,-4.201 4.849,-4.816 4.893,-5.432 4.893,-6 Z"
       id="path1" /></symbol><g
     id="g1"><g
       id="use1"
       transform="matrix(4,0,0,4,0,-0.001)"><path
         id="path5"
         d="m 5.6054688,-6.1295859 c -0.7023811,0.018306 -1.1966146,0.081966 -1.9204102,0.4238281 -0.7791639,0.3680134 -1.1647542,0.6666292 -1.4794922,0.9946289 -0.3153897,0.3279997 -0.5940188,0.7062778 -0.8364258,1.1342772 -0.2424068,0.4279996 -0.43785379,0.9082518 -0.58642576,1.440918 -0.14922361,0.5333329 -0.22412109,1.1224239 -0.22412109,1.76708987 H 1.5214844 c 0,-0.2813331 0.020795,-0.5733103 0.0625,-0.87597647 0.042356,-0.3026664 0.1089674,-0.6064664 0.2001953,-0.9111329 0.09188,-0.3046664 0.2112931,-0.6045694 0.3579101,-0.8999024 C 2.2893586,-3.350522 2.4688839,-3.6327139 2.6806641,-3.902047 2.8924444,-4.1720466 3.2702863,-4.5718483 3.7939453,-4.8888633 4.3392241,-5.2189671 4.8290297,-5.3767099 5.5927734,-5.3395469 L 2.3754883,2.7566445 3.1416016,3.1824258 c 0,0 0.8650332,-0.2750559 1.5498046,-0.5878906 C 5.3761777,2.2817004 5.8358558,1.9937781 6.4130859,1.5505898 6.9903161,1.1074016 7.1572752,0.93732137 7.5039062,0.49004287 l -0.668457,-0.5654296 C 6.5723541,0.24383327 6.108619,0.62042217 5.578125,1.0076211 5.0548905,1.3895214 4.6203822,1.6536113 3.9648438,1.9133828 3.8363612,1.9642968 3.7080602,2.0078909 3.5830078,2.0481484 l 2.890625,-7.2739257 0.309082,-0.7773438 c 0,0 -0.5708313,-0.1422698 -1.177246,-0.1264648 z"
         sodipodi:nodetypes="sscscccccccscccssccsscccs" /></g></g></svg>
