<svg xmlns="http://www.w3.org/2000/svg" xmlns:xlink="http://www.w3.org/1999/xlink" width="26.039" height="109.734" viewBox="0 -76.617 26.039 109.734"><symbol id="seguihis_518" width="6.029" height="27.434" viewBox="0 -19.154 6.029 27.434"><path d="M 6.029 -4.893 L 6.029 -4.893 Q 5.473 -4.629 5.042 -4.283 Q 4.611 -3.938 4.286 -3.533 Q 3.961 -3.129 3.735 -2.687 Q 3.51 -2.244 3.369 -1.787 Q 3.229 -1.33 3.164 -0.876 Q 3.1 -0.422 3.1 0 L 2.115 0 Q 2.115 -0.967 2.344 -1.767 Q 2.572 -2.566 2.944 -3.208 Q 3.316 -3.85 3.8 -4.342 Q 4.283 -4.834 4.793 -5.18 Q 4.412 -5.244 4.002 -5.282 Q 3.592 -5.32 3.152 -5.32 Q 2.654 -5.32 2.18 -5.273 Q 1.705 -5.227 1.324 -5.174 Q 0.879 -5.109 0.48 -5.027 L 0.48 -5.848 Q 0.873 -5.93 1.307 -5.994 Q 1.676 -6.047 2.142 -6.094 Q 2.607 -6.141 3.094 -6.141 Q 3.803 -6.141 4.348 -6.073 Q 4.893 -6.006 5.268 -5.924 Q 5.707 -5.83 6.029 -5.713 Z " /></symbol><g transform=""><use href="#seguihis_518" transform="translate(0 -76.617) scale(4)" /></g></svg>