<svg xmlns="http://www.w3.org/2000/svg" xmlns:xlink="http://www.w3.org/1999/xlink" width="21.047" height="109.734" viewBox="0 -76.617 21.047 109.734"><symbol id="seguihis_483" width="4.16" height="27.434" viewBox="0 -19.154 4.16 27.434"><path d="M 4.16 0 L 4.16 0 L 3.199 0 L 3.199 -6.094 Q 3.199 -8.191 1.594 -8.191 Q 1.494 -8.191 1.351 -8.174 Q 1.207 -8.156 1.049 -8.124 Q 0.891 -8.092 0.738 -8.042 Q 0.586 -7.992 0.48 -7.928 L 0.48 -8.824 Q 0.574 -8.871 0.721 -8.906 Q 0.867 -8.941 1.02 -8.965 Q 1.172 -8.988 1.318 -9 Q 1.465 -9.012 1.57 -9.012 Q 2.197 -9.012 2.681 -8.807 Q 3.164 -8.602 3.492 -8.212 Q 3.82 -7.822 3.99 -7.248 Q 4.16 -6.674 4.16 -5.936 Z " /></symbol><g transform=""><use href="#seguihis_483" transform="translate(0 -76.617) scale(4)" /></g></svg>