<svg xmlns="http://www.w3.org/2000/svg" xmlns:xlink="http://www.w3.org/1999/xlink" width="22.172" height="109.734" viewBox="0 -76.617 22.172 109.734"><symbol id="seguihis_513" width="4.98" height="27.434" viewBox="0 -19.154 4.98 27.434"><path d="M 0.48 -1.189 L 0.48 -1.189 Q 1.178 -0.668 1.957 -0.668 Q 2.889 -0.668 3.445 -1.277 Q 3.996 -1.881 3.996 -2.941 Q 3.996 -4.014 3.41 -4.67 Q 2.818 -5.332 1.898 -5.332 Q 1.143 -5.332 0.469 -4.863 L 0.469 -5.848 Q 1.084 -6.141 1.863 -6.141 Q 3.281 -6.141 4.131 -5.238 Q 4.98 -4.348 4.98 -2.859 Q 4.98 -1.529 4.195 -0.691 Q 3.404 0.141 2.121 0.141 Q 1.178 0.141 0.48 -0.275 Z " /></symbol><g transform=""><use href="#seguihis_513" transform="translate(0 -76.617) scale(4)" /></g></svg>