<svg xmlns="http://www.w3.org/2000/svg" xmlns:xlink="http://www.w3.org/1999/xlink" width="24.492" height="109.734" viewBox="0 -76.617 24.492 109.734"><symbol id="seguihis_488" width="5.021" height="27.434" viewBox="0 -19.154 5.021 27.434"><path d="M 1.102 0.035 L 1.102 0.035 L 1.102 -0.891 Q 1.266 -0.844 1.465 -0.814 Q 1.635 -0.785 1.866 -0.765 Q 2.098 -0.744 2.361 -0.744 Q 2.818 -0.744 3.129 -0.832 Q 3.439 -0.92 3.63 -1.075 Q 3.82 -1.23 3.905 -1.45 Q 3.99 -1.67 3.99 -1.934 Q 3.99 -2.186 3.873 -2.467 Q 3.756 -2.748 3.565 -3.05 Q 3.375 -3.352 3.132 -3.668 Q 2.889 -3.984 2.634 -4.307 Q 2.379 -4.629 2.136 -4.954 Q 1.893 -5.279 1.702 -5.599 Q 1.512 -5.918 1.395 -6.226 Q 1.277 -6.533 1.277 -6.826 Q 1.277 -7.312 1.477 -7.714 Q 1.676 -8.115 2.039 -8.405 Q 2.402 -8.695 2.921 -8.854 Q 3.439 -9.012 4.078 -9.012 Q 4.172 -9.012 4.304 -9.003 Q 4.436 -8.994 4.564 -8.982 Q 4.711 -8.965 4.869 -8.953 L 4.834 -8.062 Q 4.658 -8.074 4.5 -8.092 Q 4.365 -8.104 4.219 -8.112 Q 4.072 -8.121 3.979 -8.121 Q 3.545 -8.121 3.229 -8.033 Q 2.912 -7.945 2.707 -7.784 Q 2.502 -7.623 2.405 -7.4 Q 2.309 -7.178 2.309 -6.914 Q 2.309 -6.668 2.426 -6.384 Q 2.543 -6.1 2.733 -5.789 Q 2.924 -5.479 3.167 -5.15 Q 3.41 -4.822 3.665 -4.488 Q 3.92 -4.154 4.163 -3.823 Q 4.406 -3.492 4.597 -3.176 Q 4.787 -2.859 4.904 -2.563 Q 5.021 -2.268 5.021 -2.004 Q 5.021 -1.389 4.805 -0.976 Q 4.588 -0.562 4.21 -0.316 Q 3.832 -0.07 3.319 0.035 Q 2.807 0.141 2.209 0.141 Q 2.004 0.141 1.808 0.126 Q 1.611 0.111 1.453 0.088 Q 1.266 0.064 1.102 0.035 Z " /></symbol><g transform=""><use href="#seguihis_488" transform="translate(0 -76.617) scale(4)" /></g></svg>