<svg xmlns="http://www.w3.org/2000/svg" xmlns:xlink="http://www.w3.org/1999/xlink" width="25.617" height="109.734" viewBox="0 -76.617 25.617 109.734"><symbol id="seguihis_509" width="5.854" height="27.434" viewBox="0 -19.154 5.854 27.434"><path d="M 4.893 0 L 4.893 0 Q 4.893 -0.568 4.849 -1.184 Q 4.805 -1.799 4.682 -2.391 Q 4.559 -2.982 4.342 -3.513 Q 4.125 -4.043 3.785 -4.444 Q 3.445 -4.846 2.965 -5.083 Q 2.484 -5.32 1.828 -5.32 Q 1.529 -5.32 1.283 -5.288 Q 1.037 -5.256 0.855 -5.221 Q 0.645 -5.18 0.48 -5.127 L 0.48 -5.936 Q 0.715 -5.988 0.87 -6.026 Q 1.025 -6.064 1.175 -6.091 Q 1.324 -6.117 1.5 -6.129 Q 1.676 -6.141 1.939 -6.141 Q 2.766 -6.141 3.375 -5.865 Q 3.984 -5.59 4.421 -5.124 Q 4.857 -4.658 5.136 -4.043 Q 5.414 -3.428 5.572 -2.745 Q 5.73 -2.062 5.792 -1.356 Q 5.854 -0.65 5.854 0 Z " /></symbol><g transform=""><use href="#seguihis_509" transform="translate(0 -76.617) scale(4)" /></g></svg>