<svg xmlns="http://www.w3.org/2000/svg" xmlns:xlink="http://www.w3.org/1999/xlink" width="21.047" height="109.734" viewBox="0 -76.617 21.047 109.734"><symbol id="seguihis_496" width="4.781" height="27.434" viewBox="0 -19.154 4.781 27.434"><path d="M 1.102 -3.064 L 1.102 -3.064 Q 1.102 -3.803 1.271 -4.377 Q 1.441 -4.951 1.77 -5.341 Q 2.098 -5.73 2.581 -5.936 Q 3.064 -6.141 3.691 -6.141 Q 3.797 -6.141 3.943 -6.129 Q 4.09 -6.117 4.242 -6.094 Q 4.395 -6.07 4.538 -6.035 Q 4.682 -6 4.781 -5.953 L 4.781 -5.057 Q 4.676 -5.121 4.523 -5.171 Q 4.371 -5.221 4.213 -5.253 Q 4.055 -5.285 3.908 -5.303 Q 3.762 -5.32 3.668 -5.32 Q 2.062 -5.32 2.062 -3.223 L 2.062 2.76 L 1.102 2.76 Z " /></symbol><g transform=""><use href="#seguihis_496" transform="translate(0 -76.617) scale(4)" /></g></svg>