<svg xmlns="http://www.w3.org/2000/svg" xmlns:xlink="http://www.w3.org/1999/xlink" width="20.086" height="109.734" viewBox="0 -76.617 20.086 109.734"><symbol id="seguihis_498" width="4.471" height="27.434" viewBox="0 -19.154 4.471 27.434"><path d="M 0.551 -6.035 L 0.551 -6.035 Q 0.715 -6.064 0.902 -6.088 Q 1.061 -6.105 1.257 -6.123 Q 1.453 -6.141 1.658 -6.141 Q 2.256 -6.141 2.769 -6.035 Q 3.281 -5.93 3.659 -5.684 Q 4.037 -5.438 4.254 -5.024 Q 4.471 -4.611 4.471 -3.996 Q 4.471 -3.732 4.354 -3.445 Q 4.236 -3.158 4.046 -2.854 Q 3.855 -2.549 3.612 -2.235 Q 3.369 -1.922 3.114 -1.605 Q 2.859 -1.289 2.616 -0.979 Q 2.373 -0.668 2.183 -0.369 Q 1.992 -0.07 1.875 0.205 Q 1.758 0.48 1.758 0.727 Q 1.758 0.99 1.854 1.213 Q 1.951 1.436 2.156 1.597 Q 2.361 1.758 2.678 1.846 Q 2.994 1.934 3.428 1.934 Q 3.521 1.934 3.668 1.925 Q 3.814 1.916 3.949 1.904 Q 4.107 1.893 4.283 1.875 L 4.318 2.766 Q 4.16 2.783 4.014 2.795 Q 3.885 2.807 3.753 2.815 Q 3.621 2.824 3.527 2.824 Q 2.889 2.824 2.37 2.666 Q 1.852 2.508 1.488 2.218 Q 1.125 1.928 0.926 1.526 Q 0.727 1.125 0.727 0.639 Q 0.727 0.346 0.844 0.044 Q 0.961 -0.258 1.151 -0.562 Q 1.342 -0.867 1.585 -1.175 Q 1.828 -1.482 2.083 -1.787 Q 2.338 -2.092 2.581 -2.391 Q 2.824 -2.689 3.015 -2.977 Q 3.205 -3.264 3.322 -3.539 Q 3.439 -3.814 3.439 -4.066 Q 3.439 -4.33 3.354 -4.55 Q 3.27 -4.77 3.079 -4.925 Q 2.889 -5.08 2.578 -5.168 Q 2.268 -5.256 1.811 -5.256 Q 1.547 -5.256 1.315 -5.232 Q 1.084 -5.209 0.914 -5.18 Q 0.715 -5.15 0.551 -5.109 Z " /></symbol><g transform=""><use href="#seguihis_498" transform="translate(0 -76.617) scale(4)" /></g></svg>