<svg xmlns="http://www.w3.org/2000/svg" xmlns:xlink="http://www.w3.org/1999/xlink" width="22.523" height="109.734" viewBox="0 -76.617 22.523 109.734"><symbol id="seguihis_490" width="5.15" height="27.434" viewBox="0 -19.154 5.15 27.434"><path d="M 0.551 -2.607 L 0.551 -2.607 Q 0.551 -3.07 0.68 -3.568 Q 0.809 -4.066 1.031 -4.579 Q 1.254 -5.092 1.559 -5.604 Q 1.863 -6.117 2.209 -6.621 Q 1.752 -6.463 1.339 -6.419 Q 0.926 -6.375 0.551 -6.375 L 0.551 -7.195 Q 1.137 -7.195 1.629 -7.315 Q 2.121 -7.436 2.54 -7.658 Q 2.959 -7.881 3.311 -8.191 Q 3.662 -8.502 3.973 -8.883 L 5.068 -8.883 Q 4.629 -8.35 4.198 -7.808 Q 3.768 -7.266 3.375 -6.721 Q 2.982 -6.176 2.646 -5.637 Q 2.309 -5.098 2.062 -4.576 Q 1.816 -4.055 1.676 -3.554 Q 1.535 -3.053 1.535 -2.59 Q 1.535 -2.098 1.705 -1.737 Q 1.875 -1.377 2.153 -1.143 Q 2.432 -0.908 2.786 -0.794 Q 3.141 -0.68 3.51 -0.68 Q 3.809 -0.68 4.102 -0.709 Q 4.395 -0.738 4.629 -0.773 Q 4.904 -0.814 5.15 -0.873 L 5.15 -0.064 Q 4.916 -0.012 4.714 0.026 Q 4.512 0.064 4.307 0.091 Q 4.102 0.117 3.882 0.129 Q 3.662 0.141 3.398 0.141 Q 2.801 0.141 2.279 -0.047 Q 1.758 -0.234 1.374 -0.592 Q 0.99 -0.949 0.771 -1.456 Q 0.551 -1.963 0.551 -2.607 Z " /></symbol><g transform=""><use href="#seguihis_490" transform="translate(0 -76.617) scale(4)" /></g></svg>