<svg xmlns="http://www.w3.org/2000/svg" xmlns:xlink="http://www.w3.org/1999/xlink" width="22.523" height="109.734" viewBox="0 -76.617 22.523 109.734"><symbol id="seguihis_500" width="5.08" height="27.434" viewBox="0 -19.154 5.08 27.434"><path d="M 5.08 -3.393 L 5.08 -3.393 Q 5.08 -2.924 4.951 -2.446 Q 4.822 -1.969 4.597 -1.482 Q 4.371 -0.996 4.069 -0.498 Q 3.768 0 3.422 0.498 Q 3.879 0.34 4.292 0.296 Q 4.705 0.252 5.08 0.252 L 5.08 1.072 Q 4.488 1.072 3.999 1.192 Q 3.51 1.312 3.091 1.535 Q 2.672 1.758 2.32 2.068 Q 1.969 2.379 1.658 2.76 L 0.562 2.76 Q 0.996 2.232 1.43 1.696 Q 1.863 1.16 2.256 0.63 Q 2.648 0.1 2.985 -0.422 Q 3.322 -0.943 3.568 -1.453 Q 3.814 -1.963 3.955 -2.455 Q 4.096 -2.947 4.096 -3.41 Q 4.096 -3.902 3.926 -4.263 Q 3.756 -4.623 3.478 -4.857 Q 3.199 -5.092 2.845 -5.206 Q 2.49 -5.32 2.121 -5.32 Q 1.822 -5.32 1.529 -5.288 Q 1.236 -5.256 1.002 -5.221 Q 0.727 -5.18 0.48 -5.127 L 0.48 -5.936 Q 0.715 -5.988 0.917 -6.026 Q 1.119 -6.064 1.324 -6.091 Q 1.529 -6.117 1.749 -6.129 Q 1.969 -6.141 2.232 -6.141 Q 2.83 -6.141 3.352 -5.953 Q 3.873 -5.766 4.257 -5.408 Q 4.641 -5.051 4.86 -4.541 Q 5.08 -4.031 5.08 -3.393 Z " /></symbol><g transform=""><use href="#seguihis_500" transform="translate(0 -76.617) scale(4)" /></g></svg>