<svg xmlns="http://www.w3.org/2000/svg" xmlns:xlink="http://www.w3.org/1999/xlink" width="23.156" height="109.734" viewBox="0 -76.617 23.156 109.734"><symbol id="seguihis_492" width="5.238" height="27.434" viewBox="0 -19.154 5.238 27.434"><path d="M 0.551 -0.68 L 0.551 -0.68 Q 0.943 -0.826 1.383 -1.058 Q 1.822 -1.289 2.25 -1.617 Q 1.893 -1.963 1.582 -2.364 Q 1.271 -2.766 1.043 -3.223 Q 0.814 -3.68 0.683 -4.189 Q 0.551 -4.699 0.551 -5.262 Q 0.551 -6.082 0.703 -6.771 Q 0.855 -7.459 1.154 -7.957 Q 1.453 -8.455 1.89 -8.733 Q 2.326 -9.012 2.895 -9.012 Q 3.463 -9.012 3.899 -8.733 Q 4.336 -8.455 4.635 -7.957 Q 4.934 -7.459 5.086 -6.771 Q 5.238 -6.082 5.238 -5.262 Q 5.238 -4.699 5.106 -4.189 Q 4.975 -3.68 4.743 -3.223 Q 4.512 -2.766 4.201 -2.364 Q 3.891 -1.963 3.533 -1.617 Q 3.967 -1.289 4.403 -1.058 Q 4.84 -0.826 5.238 -0.68 L 5.238 0.141 Q 4.998 0.082 4.717 -0.026 Q 4.436 -0.135 4.134 -0.29 Q 3.832 -0.445 3.516 -0.639 Q 3.199 -0.832 2.895 -1.072 Q 2.584 -0.832 2.271 -0.639 Q 1.957 -0.445 1.652 -0.29 Q 1.348 -0.135 1.069 -0.026 Q 0.791 0.082 0.551 0.141 Z M 1.535 -5.32 L 1.535 -5.32 Q 1.535 -4.828 1.638 -4.386 Q 1.74 -3.943 1.925 -3.551 Q 2.109 -3.158 2.355 -2.815 Q 2.602 -2.473 2.895 -2.18 Q 3.182 -2.473 3.431 -2.815 Q 3.68 -3.158 3.864 -3.551 Q 4.049 -3.943 4.151 -4.386 Q 4.254 -4.828 4.254 -5.32 Q 4.254 -5.936 4.16 -6.46 Q 4.066 -6.984 3.891 -7.371 Q 3.715 -7.758 3.463 -7.975 Q 3.211 -8.191 2.895 -8.191 Q 2.578 -8.191 2.326 -7.975 Q 2.074 -7.758 1.898 -7.371 Q 1.723 -6.984 1.629 -6.46 Q 1.535 -5.936 1.535 -5.32 Z " /></symbol><g transform=""><use href="#seguihis_492" transform="translate(0 -76.617) scale(4)" /></g></svg>