<svg xmlns="http://www.w3.org/2000/svg" xmlns:xlink="http://www.w3.org/1999/xlink" width="22.523" height="109.734" viewBox="0 -76.617 22.523 109.734"><symbol id="seguihis_489" width="5.15" height="27.434" viewBox="0 -19.154 5.15 27.434"><path d="M 0.551 -2.607 L 0.551 -2.607 Q 0.551 -3.105 0.697 -3.642 Q 0.844 -4.178 1.099 -4.726 Q 1.354 -5.273 1.69 -5.824 Q 2.027 -6.375 2.408 -6.908 Q 2.789 -7.441 3.19 -7.939 Q 3.592 -8.438 3.973 -8.883 L 5.068 -8.883 Q 4.629 -8.35 4.198 -7.808 Q 3.768 -7.266 3.375 -6.721 Q 2.982 -6.176 2.646 -5.637 Q 2.309 -5.098 2.062 -4.576 Q 1.816 -4.055 1.676 -3.554 Q 1.535 -3.053 1.535 -2.59 Q 1.535 -2.098 1.705 -1.737 Q 1.875 -1.377 2.153 -1.143 Q 2.432 -0.908 2.786 -0.794 Q 3.141 -0.68 3.51 -0.68 Q 3.809 -0.68 4.102 -0.709 Q 4.395 -0.738 4.629 -0.773 Q 4.904 -0.814 5.15 -0.873 L 5.15 -0.064 Q 4.916 -0.012 4.714 0.026 Q 4.512 0.064 4.307 0.091 Q 4.102 0.117 3.882 0.129 Q 3.662 0.141 3.398 0.141 Q 2.801 0.141 2.279 -0.047 Q 1.758 -0.234 1.374 -0.592 Q 0.99 -0.949 0.771 -1.456 Q 0.551 -1.963 0.551 -2.607 Z " /></symbol><g transform=""><use href="#seguihis_489" transform="translate(0 -76.617) scale(4)" /></g></svg>